<mxfile host="app.diagrams.net" modified="2023-06-25T05:02:43.075Z" agent="Mozilla/5.0 (Windows NT 10.0; Win64; x64) AppleWebKit/537.36 (KHTML, like Gecko) Chrome/114.0.0.0 Safari/537.36" etag="eij4jFKZvRJBT24Ow5F8" version="21.5.0">
  <diagram name="Page-1" id="4E7a-Lf5X4EZXsTUNQF7">
    <mxGraphModel dx="1050" dy="579" grid="1" gridSize="10" guides="1" tooltips="1" connect="1" arrows="1" fold="1" page="1" pageScale="1" pageWidth="850" pageHeight="1100" math="0" shadow="0">
      <root>
        <mxCell id="0" />
        <mxCell id="1" parent="0" />
        <mxCell id="ICUF-PF5C_CHbQi0rE6b-1" value="" style="rounded=0;whiteSpace=wrap;html=1;fillColor=#4D4D4D;strokeColor=#9673a6;" vertex="1" parent="1">
          <mxGeometry x="160" y="320" width="480" height="60" as="geometry" />
        </mxCell>
        <mxCell id="ICUF-PF5C_CHbQi0rE6b-4" value="" style="ellipse;whiteSpace=wrap;html=1;aspect=fixed;fillColor=#00FF00;" vertex="1" parent="1">
          <mxGeometry x="587.5" y="332.5" width="35" height="35" as="geometry" />
        </mxCell>
        <mxCell id="ICUF-PF5C_CHbQi0rE6b-3" value="" style="ellipse;whiteSpace=wrap;html=1;aspect=fixed;fillColor=#00FF00;" vertex="1" parent="1">
          <mxGeometry x="485.5" y="332.5" width="35" height="35" as="geometry" />
        </mxCell>
        <mxCell id="ICUF-PF5C_CHbQi0rE6b-7" value="" style="ellipse;whiteSpace=wrap;html=1;aspect=fixed;movable=1;resizable=1;rotatable=1;deletable=1;editable=1;locked=0;connectable=1;fillColor=#00FF00;" vertex="1" parent="1">
          <mxGeometry x="382.5" y="332.5" width="35" height="35" as="geometry" />
        </mxCell>
        <mxCell id="ICUF-PF5C_CHbQi0rE6b-5" value="" style="ellipse;whiteSpace=wrap;html=1;aspect=fixed;fillColor=#00FF00;" vertex="1" parent="1">
          <mxGeometry x="177.5" y="332.5" width="35" height="35" as="geometry" />
        </mxCell>
        <mxCell id="ICUF-PF5C_CHbQi0rE6b-2" value="" style="ellipse;whiteSpace=wrap;html=1;aspect=fixed;fillColor=#00FF00;" vertex="1" parent="1">
          <mxGeometry x="280.5" y="332.5" width="35" height="35" as="geometry" />
        </mxCell>
        <mxCell id="ICUF-PF5C_CHbQi0rE6b-24" value="colorIndex = 0" style="text;strokeColor=none;fillColor=none;html=1;fontSize=24;fontStyle=1;verticalAlign=middle;align=right;" vertex="1" parent="1">
          <mxGeometry x="440" y="280" width="200" height="40" as="geometry" />
        </mxCell>
        <mxCell id="ICUF-PF5C_CHbQi0rE6b-25" value="" style="rounded=0;whiteSpace=wrap;html=1;fillColor=#4D4D4D;strokeColor=#9673a6;" vertex="1" parent="1">
          <mxGeometry x="160" y="420" width="480" height="60" as="geometry" />
        </mxCell>
        <mxCell id="ICUF-PF5C_CHbQi0rE6b-26" value="" style="ellipse;whiteSpace=wrap;html=1;aspect=fixed;" vertex="1" parent="1">
          <mxGeometry x="587.5" y="432.5" width="35" height="35" as="geometry" />
        </mxCell>
        <mxCell id="ICUF-PF5C_CHbQi0rE6b-27" value="" style="ellipse;whiteSpace=wrap;html=1;aspect=fixed;" vertex="1" parent="1">
          <mxGeometry x="485.5" y="432.5" width="35" height="35" as="geometry" />
        </mxCell>
        <mxCell id="ICUF-PF5C_CHbQi0rE6b-28" value="" style="ellipse;whiteSpace=wrap;html=1;aspect=fixed;movable=1;resizable=1;rotatable=1;deletable=1;editable=1;locked=0;connectable=1;" vertex="1" parent="1">
          <mxGeometry x="382.5" y="432.5" width="35" height="35" as="geometry" />
        </mxCell>
        <mxCell id="ICUF-PF5C_CHbQi0rE6b-29" value="" style="ellipse;whiteSpace=wrap;html=1;aspect=fixed;" vertex="1" parent="1">
          <mxGeometry x="177.5" y="432.5" width="35" height="35" as="geometry" />
        </mxCell>
        <mxCell id="ICUF-PF5C_CHbQi0rE6b-30" value="" style="ellipse;whiteSpace=wrap;html=1;aspect=fixed;" vertex="1" parent="1">
          <mxGeometry x="280.5" y="432.5" width="35" height="35" as="geometry" />
        </mxCell>
        <mxCell id="ICUF-PF5C_CHbQi0rE6b-31" value="colorIndex = 1" style="text;strokeColor=none;fillColor=none;html=1;fontSize=24;fontStyle=1;verticalAlign=middle;align=right;" vertex="1" parent="1">
          <mxGeometry x="440" y="380" width="200" height="40" as="geometry" />
        </mxCell>
        <mxCell id="ICUF-PF5C_CHbQi0rE6b-40" value="" style="rounded=0;whiteSpace=wrap;html=1;fillColor=#4D4D4D;strokeColor=#9673a6;" vertex="1" parent="1">
          <mxGeometry x="160" y="520" width="480" height="60" as="geometry" />
        </mxCell>
        <mxCell id="ICUF-PF5C_CHbQi0rE6b-41" value="" style="ellipse;whiteSpace=wrap;html=1;aspect=fixed;fillColor=#00FF00;" vertex="1" parent="1">
          <mxGeometry x="587.5" y="532.5" width="35" height="35" as="geometry" />
        </mxCell>
        <mxCell id="ICUF-PF5C_CHbQi0rE6b-42" value="" style="ellipse;whiteSpace=wrap;html=1;aspect=fixed;fillColor=#00FF00;" vertex="1" parent="1">
          <mxGeometry x="485.5" y="532.5" width="35" height="35" as="geometry" />
        </mxCell>
        <mxCell id="ICUF-PF5C_CHbQi0rE6b-43" value="" style="ellipse;whiteSpace=wrap;html=1;aspect=fixed;movable=1;resizable=1;rotatable=1;deletable=1;editable=1;locked=0;connectable=1;fillColor=#00FF00;" vertex="1" parent="1">
          <mxGeometry x="382.5" y="532.5" width="35" height="35" as="geometry" />
        </mxCell>
        <mxCell id="ICUF-PF5C_CHbQi0rE6b-44" value="" style="ellipse;whiteSpace=wrap;html=1;aspect=fixed;fillColor=#00FF00;" vertex="1" parent="1">
          <mxGeometry x="177.5" y="532.5" width="35" height="35" as="geometry" />
        </mxCell>
        <mxCell id="ICUF-PF5C_CHbQi0rE6b-45" value="" style="ellipse;whiteSpace=wrap;html=1;aspect=fixed;fillColor=#00FF00;" vertex="1" parent="1">
          <mxGeometry x="280.5" y="532.5" width="35" height="35" as="geometry" />
        </mxCell>
        <mxCell id="ICUF-PF5C_CHbQi0rE6b-46" value="colorIndex = 2" style="text;strokeColor=none;fillColor=none;html=1;fontSize=24;fontStyle=1;verticalAlign=middle;align=right;" vertex="1" parent="1">
          <mxGeometry x="440" y="480" width="200" height="40" as="geometry" />
        </mxCell>
        <mxCell id="ICUF-PF5C_CHbQi0rE6b-47" value="" style="rounded=0;whiteSpace=wrap;html=1;fillColor=#4D4D4D;strokeColor=#9673a6;" vertex="1" parent="1">
          <mxGeometry x="160" y="620" width="480" height="60" as="geometry" />
        </mxCell>
        <mxCell id="ICUF-PF5C_CHbQi0rE6b-48" value="" style="ellipse;whiteSpace=wrap;html=1;aspect=fixed;" vertex="1" parent="1">
          <mxGeometry x="587.5" y="632.5" width="35" height="35" as="geometry" />
        </mxCell>
        <mxCell id="ICUF-PF5C_CHbQi0rE6b-49" value="" style="ellipse;whiteSpace=wrap;html=1;aspect=fixed;" vertex="1" parent="1">
          <mxGeometry x="485.5" y="632.5" width="35" height="35" as="geometry" />
        </mxCell>
        <mxCell id="ICUF-PF5C_CHbQi0rE6b-50" value="" style="ellipse;whiteSpace=wrap;html=1;aspect=fixed;movable=1;resizable=1;rotatable=1;deletable=1;editable=1;locked=0;connectable=1;" vertex="1" parent="1">
          <mxGeometry x="382.5" y="632.5" width="35" height="35" as="geometry" />
        </mxCell>
        <mxCell id="ICUF-PF5C_CHbQi0rE6b-51" value="" style="ellipse;whiteSpace=wrap;html=1;aspect=fixed;" vertex="1" parent="1">
          <mxGeometry x="177.5" y="632.5" width="35" height="35" as="geometry" />
        </mxCell>
        <mxCell id="ICUF-PF5C_CHbQi0rE6b-52" value="" style="ellipse;whiteSpace=wrap;html=1;aspect=fixed;" vertex="1" parent="1">
          <mxGeometry x="280.5" y="632.5" width="35" height="35" as="geometry" />
        </mxCell>
        <mxCell id="ICUF-PF5C_CHbQi0rE6b-53" value="colorIndex = 3" style="text;strokeColor=none;fillColor=none;html=1;fontSize=24;fontStyle=1;verticalAlign=middle;align=right;" vertex="1" parent="1">
          <mxGeometry x="440" y="580" width="200" height="40" as="geometry" />
        </mxCell>
      </root>
    </mxGraphModel>
  </diagram>
</mxfile>
